<svg fill="#717171" xmlns="http://www.w3.org/2000/svg" width="19.738" height="17.594" viewBox="0 0 19.738 17.594">
  <g id="Group_3319" transform="translate(-322.132 -321.406)">
    <g id="home" transform="translate(322.132 293.608)">
      <g id="Group_3313" transform="translate(-0.001 27.798)">
        <g id="Group_3312" transform="translate(0 0)">
          <path id="Path_3039" d="M19.527,34.747,10.171,27.9a.513.513,0,0,0-.606,0L.209,34.747a.513.513,0,0,0,.606.828l9.053-6.628,9.053,6.628a.513.513,0,0,0,.606-.828Z" transform="translate(0.001 -27.798)"/>
        </g>
      </g>
      <g id="Group_3315" transform="translate(2.176 35.69)">
        <g id="Group_3314" transform="translate(0 0)">
          <path id="Path_3040" d="M71.324,232.543a.513.513,0,0,0-.513.513v8.163h-4.1v-4.456a2.564,2.564,0,1,0-5.129,0v4.456h-4.1v-8.163a.513.513,0,1,0-1.026,0v8.676a.513.513,0,0,0,.513.513h5.128a.513.513,0,0,0,.511-.473.385.385,0,0,0,0-.04v-4.969a1.539,1.539,0,1,1,3.077,0v4.969a.376.376,0,0,0,0,.039.513.513,0,0,0,.511.473h5.128a.513.513,0,0,0,.513-.513v-8.676A.513.513,0,0,0,71.324,232.543Z" transform="translate(-56.452 -232.543)"/>
        </g>
      </g>
    </g>
  </g>
</svg>
