<svg xmlns="http://www.w3.org/2000/svg" width="42.583" height="41.666" viewBox="0 0 42.583 41.666">
  <g id="praying-hands" transform="translate(0 -4.803)">
    <path fill="#ffffff" id="Path_3015" data-name="Path 3015" d="M14.723,24.016V11.687a.764.764,0,0,0-1.528,0v10.8l-1.337-1.337V9.777a.764.764,0,1,0-1.528,0v9.847L9.4,18.692a3.1,3.1,0,0,0-.4-.34V7.868a.764.764,0,0,0-1.528,0V17.8c-.078-.006-.156-.01-.235-.01a3.063,3.063,0,0,0-1.1.2V7.868a3.065,3.065,0,1,0-6.13,0c0,.024,0,.618,0,1.581,0,.014,0,.027,0,.041s0,.029,0,.043c0,3.071.011,9.689.011,13.8a.765.765,0,0,0,.1.374l8.9,15.829v6.173a.764.764,0,0,0,1.528,0V39.332a.765.765,0,0,0-.1-.374l-8.9-15.829c0-3.816-.007-9.635-.011-12.874h.385a.764.764,0,1,0,0-1.528H1.529c0-.531,0-.842,0-.859a1.537,1.537,0,0,1,3.074,0V19.232c0,.016,0,.032,0,.048a3.07,3.07,0,0,0,.46,3.746l7.08,7.08a.764.764,0,0,0,1.08-1.08l-5.5-5.5.767-.767a.764.764,0,0,0-1.08-1.08l-.767.767-.5-.5a1.537,1.537,0,0,1,2.174-2.174l2.236,2.236h0l2.864,2.864h0l3.235,3.235c2.321,2.321,2.3,4.141,2.216,11.8-.018,1.671-.039,3.564-.039,5.8a.764.764,0,0,0,1.528,0c0-2.224.021-4.113.039-5.78.086-7.776.112-10.122-2.663-12.9Z" transform="translate(0)"/>
    <path fill="#ffffff" id="Path_3016" data-name="Path 3016" d="M252.515,9.45c0-.963,0-1.558,0-1.582a3.065,3.065,0,0,0-6.13,0V18a3.063,3.063,0,0,0-1.1-.2c-.079,0-.157,0-.235.01V7.868a.764.764,0,1,0-1.528,0V18.352a3.1,3.1,0,0,0-.4.34l-.932.932V9.777a.764.764,0,1,0-1.528,0V21.152l-1.337,1.337v-10.8a.764.764,0,1,0-1.528,0V24.016l-3.012,3.012c-2.775,2.775-2.749,5.122-2.663,12.9.018,1.667.039,3.556.039,5.78a.764.764,0,0,0,1.528,0c0-2.233-.021-4.126-.039-5.8-.085-7.66-.1-9.48,2.216-11.8l8.336-8.336a1.537,1.537,0,1,1,2.174,2.174l-.5.5-.767-.767a.764.764,0,0,0-1.08,1.08l.767.767-5.5,5.5a.764.764,0,0,0,1.08,1.08l6.04-6.04h0l1.04-1.04a3.07,3.07,0,0,0,.459-3.746c0-.016,0-.032,0-.048V7.868a1.537,1.537,0,0,1,3.074,0c0,.017,0,.329,0,.86H250.6a.764.764,0,0,0,0,1.528h.385c0,3.24-.01,9.059-.011,12.874l-8.9,15.829a.764.764,0,0,0-.1.374v6.373a.764.764,0,1,0,1.528,0V39.532l8.9-15.829a.764.764,0,0,0,.1-.374c0-4.106.008-10.723.012-13.795,0-.014,0-.029,0-.043S252.516,9.463,252.515,9.45Z" transform="translate(-209.934)"/>
  </g>
</svg>
