<svg id="surface1" xmlns="http://www.w3.org/2000/svg" width="19" height="19" viewBox="0 0 19 19">
  <path id="Path_3038" data-name="Path 3038" d="M18.891,5.591,14.916.225a.557.557,0,0,0-.895,0L10.046,5.591a.557.557,0,0,0,.447.888h1.431V9.17a2.033,2.033,0,0,0-.934-.226H10A2.049,2.049,0,0,0,7.95,10.99v1.16a2.033,2.033,0,0,0-.934-.226H6.022a2.05,2.05,0,0,0-2.047,2.047v1.16a2.036,2.036,0,0,0-.934-.226H2.047A2.05,2.05,0,0,0,0,16.953v1.491A.557.557,0,0,0,.557,19h15.9a.557.557,0,0,0,.557-.557V6.479h1.431a.557.557,0,0,0,.447-.888ZM1.113,16.953a.935.935,0,0,1,.934-.934h.994a.935.935,0,0,1,.934.934v.934H1.113Zm3.975,0V13.972a.935.935,0,0,1,.934-.934h.994a.935.935,0,0,1,.934.934v3.915H5.088Zm3.975-2.981V10.99A.935.935,0,0,1,10,10.057h.994a.935.935,0,0,1,.934.934v6.9H9.063Zm7.393-8.606a.557.557,0,0,0-.557.557V17.887H13.038V5.923a.557.557,0,0,0-.557-.557H11.6l2.87-3.874,2.87,3.874Zm0,0"/>
</svg>
